<svg width="166" height="135" viewBox="12 0 166 135" fill="none" xmlns="http://www.w3.org/2000/svg">
<path fill="#fdd3ba" stroke="none" transform="translate(154.1171, 124.4332)" d="M-1.1443,-14.4451C5.5688,-47.1225,18.398,-101.4162,-16.5742,-115.6489C-51.5463,-129.8816,-121.7665,-63.4937,-128.5949,-35.1611C-135.4234,-6.8285,-108.6112,-18.1123,-90.7358,-22.1803C-72.8605,-26.2482,-54.7052,-25.2054,-47.2182,-9.3825C-39.7312,6.4404,-7.8575,18.2323,-1.1443,-14.4451z"/>
<g filter="url(#filter0_d)">
  <rect x="22" y="26" width="145" height="72" rx="6" fill="white"/>
  <rect x="22.25" y="26.25" width="144.5" height="71.5" rx="5.75" stroke="#E9F7F0" stroke-width="0.5"/>
</g>
<g filter="url(#filter1_dd)">
  <rect x="12" y="37" width="166" height="50" rx="8" fill="white"/>
  <rect x="12.25" y="37.25" width="165.5" height="49.5" rx="7.75" stroke="#E9F7F0" stroke-width="0.5"/>
</g>

<!-- Light gray background box -->
<rect x="20" y="45" width="34" height="34" rx="6" fill="#F5F6F6"/>

<!-- Premium Centered Checkmark -->
<path d="M32 62L36 66L43 57" stroke="#B0B3B2" stroke-width="1.5" stroke-linecap="round" stroke-linejoin="round"/>

<!-- Lines -->
<rect x="63" y="49" width="72" height="4" rx="2" fill="#FBB086"/>
<rect x="63" y="61" width="64" height="4" rx="2" fill="#FDD3BA"/>
<rect x="63" y="73" width="94" height="4" rx="2" fill="#FDD3BA"/>

<defs>
  <filter id="filter0_d" x="20.125" y="25.0625" width="148.75" height="75.75" filterUnits="userSpaceOnUse" color-interpolation-filters="sRGB">
    <feFlood flood-opacity="0" result="BackgroundImageFix"/>
    <feGaussianBlur stdDeviation="1"/>
    <feColorMatrix type="matrix" values="0 0 0 0 0.1 0 0 0 0 0.15 0 0 0 0 0.14 0 0 0 0.04 0"/>
    <feBlend mode="normal" in2="BackgroundImageFix" result="effect1_dropShadow"/>
    <feBlend mode="normal" in="SourceGraphic" in2="effect1_dropShadow" result="shape"/>
  </filter>
  <filter id="filter1_dd" x="0" y="37" width="190" height="73" filterUnits="userSpaceOnUse" color-interpolation-filters="sRGB">
    <feFlood flood-opacity="0" result="BackgroundImageFix"/>
    <feMorphology radius="2" operator="erode" in="SourceAlpha" result="effect1_dropShadow"/>
    <feOffset dy="4"/>
    <feGaussianBlur stdDeviation="3"/>
    <feColorMatrix type="matrix" values="0 0 0 0 0.1 0 0 0 0 0.15 0 0 0 0 0.14 0 0 0 0.05 0"/>
    <feBlend mode="normal" in2="effect1_dropShadow" result="effect1_dropShadow"/>
    <feMorphology radius="4" operator="erode" in="SourceAlpha" result="effect2_dropShadow"/>
    <feOffset dy="12"/>
    <feGaussianBlur stdDeviation="8"/>
    <feColorMatrix type="matrix" values="0 0 0 0 0.1 0 0 0 0 0.15 0 0 0 0 0.14 0 0 0 0.07 0"/>
    <feBlend mode="normal" in2="effect2_dropShadow" result="effect2_dropShadow"/>
    <feBlend mode="normal" in="SourceGraphic" in2="effect2_dropShadow" result="shape"/>
  </filter>
</defs>
</svg>